<svg width="20" height="7" viewBox="0 0 20 7" fill="none" xmlns="http://www.w3.org/2000/svg">
<path d="M0.0389648 3.37054C0.0639648 3.42995 0.100965 3.48266 0.147965 3.52675L2.88396 6.14875C2.98196 6.24266 3.10996 6.28866 3.23796 6.28866C3.36596 6.28866 3.49396 6.24171 3.59196 6.14875C3.78696 5.96187 3.78696 5.65808 3.59196 5.47121L1.70796 3.66666H19.501C19.777 3.66666 20.001 3.452 20.001 3.1875C20.001 2.923 19.777 2.70833 19.501 2.70833H1.70796L3.59096 0.903788C3.78596 0.716913 3.78596 0.413121 3.59096 0.226246C3.39596 0.0393713 3.07896 0.0393713 2.88396 0.226246L0.147965 2.84825C0.101965 2.89233 0.0649648 2.946 0.0389648 3.00445C-0.0110352 3.12233 -0.0110352 3.25362 0.0389648 3.37054Z" fill="#3676D9"/>
</svg>
