<svg width="20" height="20" viewBox="0 0 20 20" fill="none" xmlns="http://www.w3.org/2000/svg">
<path d="M19.0789 5.48551C18.4399 5.76939 17.7526 5.96095 17.031 6.04688C17.7674 5.60591 18.3325 4.90723 18.5989 4.07422C17.9098 4.48298 17.1471 4.77978 16.3347 4.9398C15.6845 4.24684 14.7577 3.81377 13.7323 3.81377C11.7633 3.81377 10.1668 5.41022 10.1668 7.37929C10.1668 7.65869 10.1983 7.93068 10.2592 8.19163C7.29587 8.04314 4.66846 6.62378 2.90993 4.46644C2.60312 4.99285 2.42726 5.60524 2.42726 6.25894C2.42726 7.49588 3.05669 8.58712 4.01338 9.22671C3.42908 9.20794 2.87906 9.04775 2.39848 8.78055C2.39816 8.79537 2.39816 8.81036 2.39816 8.82571C2.39816 10.5529 3.6272 11.994 5.25844 12.3218C4.95921 12.4031 4.64418 12.4468 4.31896 12.4468C4.08898 12.4468 3.86575 12.4246 3.64801 12.3828C4.10193 13.7992 5.41864 14.8302 6.97858 14.8589C5.75833 15.8153 4.2211 16.3853 2.55042 16.3853C2.26276 16.3853 1.97906 16.3682 1.70001 16.3355C3.2782 17.3473 5.15215 17.9375 7.16563 17.9375C13.724 17.9375 17.3101 12.5044 17.3101 7.79267C17.3101 7.63833 17.3069 7.48417 17.3001 7.33138C17.9965 6.82874 18.6013 6.20073 19.0789 5.48551Z" fill="#3676D9"/>
</svg>
