<svg width="200" height="200" viewBox="0 0 200 200" fill="none" xmlns="http://www.w3.org/2000/svg">
<rect width="200" height="200" fill="white"/>
<path d="M99.9998 40.25C133 40.25 159.7 66.95 159.7 99.9C159.7 132.85 133 159.6 99.9998 159.6C66.9998 159.6 40.2998 132.9 40.2998 99.95C40.2998 67 66.9998 40.25 99.9998 40.25Z" fill="#E74D89"/>
<path d="M100 163.85C64.7 163.85 36 135.2 36 99.95C36 64.65 64.7 36 100 36C135.3 36 164 64.65 164 99.9C164 135.15 135.3 163.85 100 163.85ZM153.95 108.65C152.1 108.05 137.05 103.6 119.9 106.3C127.05 125.9 129.95 141.9 130.5 145.2C142.8 136.95 151.55 123.85 153.95 108.65ZM121.35 150.25C120.55 145.45 117.35 128.75 109.7 108.85C109.6 108.9 109.45 108.95 109.35 108.95C78.5 119.7 67.45 141.05 66.45 143.05C75.7 150.25 87.35 154.55 100 154.55C107.55 154.6 114.8 153.05 121.35 150.25V150.25ZM59.4 136.5C60.65 134.4 75.65 109.6 103.85 100.45C104.55 100.2 105.3 100 106 99.8C104.65 96.7 103.15 93.6 101.55 90.55C74.25 98.7 47.75 98.35 45.35 98.3C45.35 98.85 45.3 99.4 45.3 99.95C45.35 114 50.65 126.8 59.4 136.5V136.5ZM46.5 88.8C48.95 88.85 71.45 88.95 97.05 82.15C88 66.05 78.2 52.55 76.8 50.6C61.45 57.8 50.05 71.9 46.5 88.8ZM87.2 46.9C88.7 48.9 98.65 62.4 107.6 78.85C127.05 71.55 135.25 60.55 136.25 59.15C126.6 50.6 113.9 45.4 100 45.4C95.6 45.4 91.3 45.95 87.2 46.9V46.9ZM142.3 65.45C141.15 67 132 78.75 111.8 87C113.05 89.6 114.3 92.25 115.45 94.9C115.85 95.85 116.25 96.8 116.65 97.7C134.85 95.4 152.9 99.1 154.7 99.45C154.55 86.6 149.95 74.75 142.3 65.45V65.45Z" fill="#B2215A"/>
</svg>
