<svg width="200" height="200" viewBox="0 0 200 200" fill="none" xmlns="http://www.w3.org/2000/svg">
<rect width="200" height="200" fill="white"/>
<path d="M100.5 34.6816C136.851 34.6816 166.263 64.0934 166.263 100.39C166.263 136.686 136.851 166.153 100.5 166.153C64.1483 166.153 34.7366 136.741 34.7366 100.445C34.7366 64.1484 64.1483 34.6816 100.5 34.6816Z" fill="#E74D89"/>
<path d="M100.5 170.835C61.6148 170.835 30 139.275 30 100.445C30 61.5598 61.6148 30 100.5 30C139.385 30 171 61.5598 171 100.39C171 139.22 139.385 170.835 100.5 170.835ZM159.929 110.029C157.891 109.368 141.313 104.466 122.421 107.44C130.297 129.03 133.492 146.655 134.098 150.291C147.647 141.203 157.286 126.772 159.929 110.029ZM124.018 155.854C123.137 150.566 119.612 132.17 111.185 110.249C111.075 110.304 110.91 110.359 110.8 110.359C76.8164 122.201 64.6441 145.719 63.5426 147.922C73.732 155.854 86.5652 160.59 100.5 160.59C108.817 160.645 116.803 158.938 124.018 155.854V155.854ZM55.7766 140.707C57.1535 138.394 73.677 111.075 104.741 100.996C105.512 100.72 106.338 100.5 107.109 100.28C105.622 96.8649 103.97 93.45 102.207 90.0902C72.1348 99.068 42.9434 98.6824 40.2996 98.6274C40.2996 99.2332 40.2445 99.8391 40.2445 100.445C40.2996 115.922 46.1379 130.022 55.7766 140.707V140.707ZM41.5664 88.1625C44.2652 88.2176 69.0504 88.3277 97.2504 80.8371C87.2812 63.102 76.4859 48.2309 74.9437 46.0828C58.0348 54.0141 45.477 69.5461 41.5664 88.1625ZM86.4 42.007C88.0523 44.2102 99.0129 59.0813 108.872 77.202C130.297 69.1605 139.33 57.0434 140.432 55.5012C129.802 46.0828 115.812 40.3547 100.5 40.3547C95.6531 40.3547 90.9164 40.9605 86.4 42.007V42.007ZM147.096 62.441C145.829 64.1484 135.75 77.0918 113.498 86.1797C114.875 89.0438 116.252 91.9629 117.519 94.882C117.96 95.9285 118.4 96.975 118.841 97.9664C138.889 95.4328 158.773 99.5086 160.755 99.8941C160.59 85.7391 155.523 72.6856 147.096 62.441V62.441Z" fill="#B2215A"/>
</svg>
