<svg width="200" height="200" viewBox="0 0 200 200" fill="none" xmlns="http://www.w3.org/2000/svg">
<rect width="200" height="200" fill="white"/>
<g clip-path="url(#clip0)">
<mask id="mask0" mask-type="alpha" maskUnits="userSpaceOnUse" x="35" y="12" width="130" height="171">
<path d="M35.9185 12.0659H164.082V182.54H35.9185V12.0659Z" fill="white"/>
</mask>
<g mask="url(#mask0)">
<mask id="mask1" mask-type="alpha" maskUnits="userSpaceOnUse" x="35" y="12" width="130" height="171">
<path d="M35.9185 12.0659H164.082V182.54H35.9185V12.0659Z" fill="white"/>
</mask>
<g mask="url(#mask1)">
<path d="M99.1886 163.119C124.77 163.119 145.54 167.263 145.54 172.367C145.54 177.471 124.77 181.615 99.1886 181.615C73.6074 181.615 52.8374 177.471 52.8374 172.367C52.8374 167.263 73.6074 163.119 99.1886 163.119Z" fill="#EBE6DF"/>
<path d="M130.377 109.471V136.175C130.377 140.939 126.5 144.807 121.725 144.807H77.9131C73.1379 144.807 69.2607 140.939 69.2607 136.175V109.471C69.2607 104.708 73.1379 100.84 77.9131 100.84H121.725C126.5 100.84 130.377 104.708 130.377 109.471Z" fill="#FACA78"/>
<mask id="mask2" mask-type="alpha" maskUnits="userSpaceOnUse" x="69" y="100" width="62" height="45">
<path d="M130.377 109.471V136.175C130.377 140.939 126.5 144.807 121.725 144.807H77.9131C73.1379 144.807 69.2607 140.939 69.2607 136.175V109.471C69.2607 104.708 73.1379 100.84 77.9131 100.84H121.725C126.5 100.84 130.377 104.708 130.377 109.471Z" fill="white"/>
</mask>
<g mask="url(#mask2)">
<path d="M65.7964 120.345H134.61V125.038H65.7964V120.345ZM65.7964 136.238H134.61V131.546H65.7964V136.238Z" fill="#FFDEA6"/>
</g>
<path d="M132.395 142.888H67.2856C65.4178 142.888 63.9033 144.399 63.9033 146.263C63.9033 148.127 65.4178 149.638 67.2856 149.638H70.5948L67.6249 167.921C67.3261 169.761 68.5788 171.494 70.4226 171.792C72.2669 172.09 74.0036 170.841 74.3024 169.001L77.4475 149.638H121.996L125.14 169.001C125.439 170.841 127.176 172.09 129.02 171.792C130.864 171.494 132.117 169.761 131.818 167.921L128.848 149.638H132.395C134.262 149.638 135.777 148.127 135.777 146.263C135.777 144.399 134.262 142.888 132.395 142.888V142.888Z" fill="#4993CF"/>
<path d="M130.261 120.291V130.705C130.261 130.705 129.249 134.471 126.027 134.043C121.322 133.417 111.81 130.288 109.405 130.184C107.001 130.079 101.062 130.131 99.5891 132.217C98.116 134.304 98.6386 139.362 101.984 139.675C105.329 139.988 108.545 138.371 114.542 140.613C120.539 142.855 129.058 145.255 134.808 140.613C140.557 135.972 139.563 127.524 133.71 122.935L130.261 120.291V120.291Z" fill="#F18644"/>
<path d="M69.2491 120.291V130.705C69.2491 130.705 70.481 134.471 73.7033 134.043C78.4078 133.417 87.9201 130.288 90.3245 130.184C92.7289 130.079 98.6681 130.131 100.141 132.217C101.614 134.304 101.091 139.362 97.7459 139.675C94.4011 139.988 91.1845 138.371 85.1879 140.613C79.1912 142.855 70.6719 145.255 64.9222 140.613C59.173 135.972 60.1666 127.524 66.0201 122.935L69.2491 120.291V120.291Z" fill="#F18644"/>
<path d="M92.9884 172.581C90.664 172.581 88.7793 169.981 88.7793 166.774V142.282C88.7793 139.074 90.664 136.474 92.9884 136.474C95.3129 136.474 97.1971 139.074 97.1971 142.282V166.774C97.1971 169.981 95.3129 172.581 92.9884 172.581ZM105.535 172.581C107.859 172.581 109.744 169.981 109.744 166.774V142.282C109.744 139.074 107.859 136.474 105.535 136.474C103.21 136.474 101.326 139.074 101.326 142.282V166.774C101.326 169.981 103.21 172.581 105.535 172.581Z" fill="#F6914E"/>
<path d="M97.198 168.389V170.764C97.198 171.872 96.2973 172.77 95.187 172.77H80.5897C79.3225 172.77 78.2954 171.745 78.2954 170.481V169.121C78.2954 167.857 79.3225 166.832 80.5897 166.832H95.6364C96.4993 166.832 97.198 167.529 97.198 168.389V168.389ZM118.048 166.832H102.774C101.975 166.832 101.326 167.478 101.326 168.276V170.877C101.326 171.922 102.176 172.77 103.223 172.77H118.048C119.252 172.77 120.229 171.795 120.229 170.594V169.008C120.229 167.806 119.252 166.832 118.048 166.832V166.832Z" fill="#4A5160"/>
<path d="M128.103 32.936C123.653 30.7498 117.982 33.0816 114.185 40.5009C114.968 29.3404 112.859 22.7824 104.641 21.4876C96.3272 20.1765 93.0427 26.8592 91.9132 38.2579C91.548 37.7609 91.1781 37.2625 90.7995 36.7607C82.2463 25.4202 72.3784 23.0789 65.9831 29.1084C59.5006 35.2191 62.1759 45.3798 73.5945 54.389C84.0927 62.672 93.0278 67.6049 98.5167 62.3263C98.6765 62.1726 98.8254 62.0146 98.9675 61.8532C99.6744 62.2332 100.416 62.4672 101.187 62.5345C104.886 62.8553 108.469 59.5439 110.945 54.21C111.225 57.0068 112.375 59.192 114.604 60.2872C119.451 62.6677 125.448 57.9029 129.666 50.6115C135.047 41.3078 132.949 35.3165 128.103 32.936V32.936Z" fill="#F47C30"/>
<path d="M131.709 51.2087H68.0761C51.7727 51.2087 41.9746 69.2562 50.8806 82.8803L69.206 111.194L69.3922 111.286H130.392V111.201L148.905 82.8803C157.811 69.2562 148.012 51.2087 131.709 51.2087V51.2087Z" fill="#F6914E"/>
<path d="M34.4341 16.2104H165.35V183.631H34.4341V16.2104ZM34.4341 183.631H165.35V16.2104H34.4341V183.631ZM154.419 61.7887C154.389 61.6865 151.32 51.4489 142.92 41.3607C135.203 32.0913 121.253 21.0411 98.6284 21.0411C80.4533 21.0411 65.9689 27.8871 55.5779 41.387C47.821 51.4642 45.4013 61.6378 45.3779 61.7391L43.6396 61.338C43.7392 60.9078 46.1728 50.6836 54.1627 40.3032C61.5506 30.7034 75.2621 19.2608 98.6284 19.2608C121.978 19.2608 136.373 30.6896 144.337 40.2765C152.952 50.6459 156.006 60.8591 156.132 61.2893L154.419 61.7887V61.7887Z" fill="#74859E"/>
<path d="M42.1416 60.2781H47.8549V80.749H42.1416C39.4668 80.749 37.2983 78.5853 37.2983 75.9164V65.1102C37.2983 62.4418 39.4668 60.2781 42.1416 60.2781ZM157.643 81.0097H151.93V60.5392H157.643C160.318 60.5392 162.486 62.7025 162.486 65.3709V76.1771C162.486 78.846 160.318 81.0097 157.643 81.0097Z" fill="#4592D1"/>
<path d="M46.9254 83.7541C45.3034 83.7541 43.9893 82.4425 43.9893 80.8245V60.4634C43.9893 58.8454 45.3034 57.5338 46.9254 57.5338C48.5468 57.5338 49.8615 58.8454 49.8615 60.4634V80.8245C49.8615 82.4425 48.5468 83.7541 46.9254 83.7541ZM152.86 57.5338C154.482 57.5338 155.796 58.8454 155.796 60.4634V80.825C155.796 82.4425 154.482 83.7541 152.86 83.7541C151.238 83.7541 149.924 82.4425 149.924 80.825V60.4634C149.924 58.8454 151.238 57.5338 152.86 57.5338ZM49.7959 50.2783C49.5045 50.2783 49.2087 50.2067 48.9354 50.0567C48.073 49.5812 47.7595 48.4984 48.2357 47.6381C52.6377 39.6807 58.3501 33.1823 65.213 28.3239C74.542 21.7206 85.7634 18.3718 98.565 18.3718C126.705 18.3718 142.367 34.2188 150.549 47.5125C151.066 48.3499 150.803 49.4461 149.963 49.9603C149.124 50.4755 148.025 50.2133 147.509 49.3755C139.802 36.8557 125.056 21.9321 98.565 21.9321C72.0898 21.9321 58.2812 36.8461 51.3599 49.3583C51.0345 49.9465 50.4248 50.2783 49.7959 50.2783V50.2783Z" fill="#565867"/>
<path d="M101.506 93.2082C81.8984 93.2082 74.177 81.7774 73.8578 81.2909C72.8412 79.7412 73.2763 77.6629 74.8293 76.6488C76.377 75.6395 78.4474 76.0649 79.4682 77.5984C79.7458 78.0033 85.7582 86.5016 101.506 86.5016C116.821 86.5016 120.691 78.4488 120.848 78.1064C121.571 76.4001 123.532 75.6233 125.243 76.3442C126.953 77.0647 127.744 79.0532 127.022 80.7595C126.807 81.268 121.522 93.2082 101.506 93.2082V93.2082Z" fill="#F47C30"/>
<path d="M91.7479 78.5915C87.6316 78.5915 84.2829 75.2504 84.2829 71.1435V70.3162C84.2829 69.8588 84.6543 69.4883 85.1123 69.4883C85.5708 69.4883 85.9422 69.8588 85.9422 70.3162V71.1435C85.9422 74.3381 88.5462 76.9363 91.7479 76.9363C94.9491 76.9363 97.5541 74.3381 97.5541 71.1435V70.3162C97.5541 69.8588 97.9254 69.4883 98.3834 69.4883C98.8414 69.4883 99.2128 69.8588 99.2128 70.3162V71.1435C99.2128 75.2504 95.8642 78.5915 91.7479 78.5915V78.5915ZM108.337 78.5915C112.453 78.5915 115.801 75.2504 115.801 71.1435V70.3162C115.801 69.8588 115.431 69.4883 114.972 69.4883C114.514 69.4883 114.143 69.8588 114.143 70.3162V71.1435C114.143 74.3381 111.538 76.9363 108.337 76.9363C105.135 76.9363 102.531 74.3381 102.531 71.1435V70.3162C102.531 69.8588 102.159 69.4883 101.701 69.4883C101.243 69.4883 100.872 69.8588 100.872 70.3162V71.1435C100.872 75.2504 104.22 78.5915 108.337 78.5915ZM101.508 90.693C119.87 90.693 124.512 80.2263 124.701 79.7813C124.882 79.3545 124.682 78.8627 124.254 78.6827C123.826 78.5008 123.333 78.7018 123.153 79.1282C123.111 79.2275 118.767 89.0163 101.508 89.0163C92.4595 89.0163 86.381 86.2921 82.8749 84.0066C79.0764 81.5311 77.3899 79.0188 77.3727 78.994C77.1185 78.6082 76.5988 78.4984 76.2107 78.7534C75.8225 79.0064 75.7139 79.5259 75.9675 79.914C76.2561 80.3542 83.2468 90.693 101.508 90.693V90.693Z" fill="#4A5160"/>
</g>
</g>
</g>
<defs>
<clipPath id="clip0">
<rect width="126" height="164" fill="white" transform="translate(37 18)"/>
</clipPath>
</defs>
</svg>
