<svg width="200" height="200" viewBox="0 0 200 200" fill="none" xmlns="http://www.w3.org/2000/svg">
<rect width="200" height="200" fill="white"/>
<path fill-rule="evenodd" clip-rule="evenodd" d="M60.4628 64.7782C57.619 64.7782 55.0595 62.1799 55.0595 59.2929C55.0595 52.6527 71.5536 47.7448 90.3227 47.7448C92.029 47.7448 93.1665 47.7448 93.1665 46.3013C93.1665 43.7029 87.4789 42.8368 87.4789 38.5063C87.4789 33.887 92.8821 31 99.7073 31C106.532 31 111.936 33.887 111.936 38.5063C111.936 42.8368 106.248 43.4142 106.248 46.3013C106.248 47.1674 107.101 47.7448 109.092 47.7448C127.861 47.7448 144.639 52.364 144.639 59.2929C144.639 62.1799 142.364 64.7782 139.236 64.7782H60.4628ZM145.492 91.0502C152.318 95.3808 154.877 103.176 153.74 110.393L145.777 153.987C144.071 162.649 136.677 169 127.861 169H99.9916H72.1224C63.3066 169 55.9127 162.649 54.2064 153.987L46.2438 110.393C45.1062 103.464 47.95 95.6695 54.7752 91.3389C58.7565 88.4519 59.6096 83.5439 54.7752 81.8117C47.95 79.2134 49.3719 70.841 56.1971 70.841H97.7166C104.257 70.841 112.22 75.749 112.22 91.6276C112.22 107.506 104.826 106.063 104.826 117.322C104.826 122.23 108.807 127.427 113.642 128.004C121.889 128.87 126.723 125.695 126.723 114.146C126.723 102.31 119.898 96.8243 119.898 87.0084C119.898 75.1715 127.292 70.5523 132.127 70.5523H144.071C150.896 70.5523 152.318 78.9247 145.492 81.523C140.658 83.5439 141.511 88.4519 145.492 91.0502Z" fill="#16A4F3"/>
</svg>
