<svg width="200" height="200" viewBox="0 0 200 200" fill="none" xmlns="http://www.w3.org/2000/svg">
<rect width="200" height="200" fill="white"/>
<path d="M43 46C43 44.3431 44.3431 43 46 43H154C155.657 43 157 44.3431 157 46V154C157 155.657 155.657 157 154 157H46C44.3431 157 43 155.657 43 154V46Z" fill="#F0DB4F"/>
<path d="M147.67 129.811C146.835 124.61 143.443 120.243 133.398 116.168C130.001 114.607 126.223 113.477 124.956 110.978C124.888 110.842 124.839 110.698 124.801 110.55C124.443 109.148 124.406 108.32 124.653 107.434C125.401 104.41 129.009 103.468 131.87 104.335C132.791 104.643 133.688 105.153 134.485 105.868C135.843 107.085 137.875 107.75 139.408 106.762C140.672 105.947 141.424 105.465 142.308 104.903C143.71 104.01 144.16 102.116 143.144 100.8C142.784 100.334 142.456 99.9604 142.1 99.5992C139.141 96.2941 135.11 94.5927 128.662 94.7228C127.546 94.8636 126.419 95.0152 125.303 95.1562C122.085 95.969 119.018 97.6595 117.219 99.9243C111.823 106.047 113.361 116.764 119.928 121.175C126.398 126.029 135.901 127.135 137.115 131.675C138.296 137.234 133.03 139.033 127.796 138.394C124.867 137.785 122.925 136.508 121.145 134.369C120.124 133.142 118.389 132.693 117.007 133.492C115.551 134.335 114.723 134.812 113.184 135.698C111.842 136.47 111.271 138.17 112.188 139.417C112.881 140.36 113.677 141.189 114.694 142.338C122.952 150.715 143.617 150.303 147.323 137.625C147.475 137.191 148.472 134.287 147.67 129.811ZM104.975 98.3945C104.974 96.7377 103.631 95.3945 101.974 95.3945H97.3108C95.6539 95.3945 94.3109 96.7377 94.3094 98.3945C94.3019 106.594 94.2675 114.752 94.2675 122.963C94.2675 128.825 94.571 134.2 93.6174 135.847C92.0569 139.087 88.0149 138.686 86.1727 138.058C84.298 137.137 83.3444 135.825 82.239 133.973V133.973C81.8803 133.345 81.2655 133.221 80.6488 133.598C78.8611 134.692 77.0766 135.788 75.2902 136.883C73.9713 137.692 73.4582 139.387 74.3203 140.671C75.6303 142.623 77.2837 144.297 79.2481 145.502C83.3117 147.941 88.7733 148.688 94.4843 147.377C98.2012 146.294 101.409 144.05 103.088 140.637C105.516 136.162 104.996 130.743 104.974 124.751C105.023 115.973 104.984 107.196 104.975 98.3945Z" fill="#323330"/>
</svg>
