<svg width="200" height="200" viewBox="0 0 200 200" fill="none" xmlns="http://www.w3.org/2000/svg">
<rect width="200" height="200" fill="white"/>
<path d="M39 42C39 40.3431 40.3431 39 42 39H158C159.657 39 161 40.3431 161 42V158C161 159.657 159.657 161 158 161H42C40.3431 161 39 159.657 39 158V42Z" fill="#F0DB4F"/>
<path d="M151.015 131.903C150.122 126.337 146.492 121.663 135.742 117.303C132.1 115.629 128.049 114.418 126.7 111.734C126.632 111.598 126.583 111.453 126.545 111.306C126.158 109.796 126.117 108.907 126.383 107.956C127.183 104.72 131.045 103.711 134.106 104.639C135.161 104.992 136.186 105.592 137.083 106.444C138.406 107.699 140.439 108.355 141.971 107.366C143.535 106.358 144.382 105.816 145.455 105.134C146.858 104.241 147.301 102.351 146.3 101.024C145.864 100.445 145.478 100 145.054 99.571C141.888 96.034 137.574 94.2132 130.674 94.3524C129.479 94.5032 128.273 94.6654 127.079 94.8163C123.635 95.686 120.352 97.4952 118.427 99.9189C112.652 106.471 114.299 117.941 121.327 122.661C128.25 127.856 138.421 129.039 139.719 133.898C140.983 139.847 135.347 141.772 129.746 141.088C126.542 140.422 124.442 139.009 122.502 136.626C121.494 135.389 119.756 134.943 118.374 135.742C116.653 136.738 115.76 137.253 113.944 138.298C112.602 139.07 112.03 140.769 112.931 142.028C113.699 143.102 114.582 144.017 115.725 145.31C124.562 154.274 146.678 153.833 150.644 140.265C150.806 139.801 151.873 136.693 151.015 131.903ZM105.324 98.0713C105.323 96.4144 103.98 95.0713 102.323 95.0713H96.9114C95.2546 95.0713 93.9115 96.4145 93.9101 98.0713C93.9025 106.917 93.8652 115.717 93.8652 124.574C93.8652 130.848 94.1899 136.6 93.1693 138.363C91.4994 141.83 87.1737 141.401 85.2022 140.728C83.196 139.743 82.1754 138.34 80.9925 136.357C80.6087 135.685 79.9507 135.552 79.2907 135.956C77.3231 137.159 75.3592 138.367 73.3928 139.572C72.0739 140.38 71.5622 142.074 72.4122 143.366C73.8305 145.523 75.6362 147.373 77.7917 148.696C82.1405 151.305 87.9854 152.105 94.0971 150.702C98.0748 149.542 101.507 147.142 103.305 143.489C105.903 138.699 105.346 132.901 105.323 126.488C105.375 117.024 105.333 107.561 105.324 98.0713Z" fill="#323330"/>
</svg>
