<svg width="200" height="200" viewBox="0 0 200 200" fill="none" xmlns="http://www.w3.org/2000/svg">
<rect width="200" height="200" fill="white"/>
<path d="M58.8052 111.58C58.8052 111.647 58.7384 111.714 58.6079 111.844L40.6719 119.469H40.605C40.605 119.469 40.5381 119.469 40.4712 119.402L26.0367 105.064C25.9698 104.997 25.9029 104.863 25.9698 104.803C26.0367 104.736 26.1036 104.67 26.1705 104.67H26.234L58.6113 111.386C58.745 111.386 58.8119 111.453 58.8119 111.58H58.8052ZM60.5209 107.083C60.454 107.083 60.454 107.083 60.5209 107.083L23.1973 99.2615C23.0635 99.2615 23 99.1947 23 99.1279C23 99.0678 23 99.0011 23.0669 98.9376L43.9026 78.34C43.9026 78.2732 43.9694 78.2732 44.0363 78.2732C44.1668 78.34 44.1668 78.34 44.237 78.4034C44.237 78.4702 62.1028 104.282 62.3035 104.543C62.3704 104.61 62.3704 104.74 62.3035 104.803C61.7082 105.454 61.1129 106.172 60.7216 106.953C60.6547 107.016 60.5878 107.087 60.5209 107.087V107.083ZM68.3034 54.6143C68.2365 54.5475 68.1696 54.5475 68.2365 54.4173C68.2365 54.3505 68.2365 54.2904 68.3034 54.2203L99.694 23.0668C99.694 23 99.7609 23 99.8278 23C99.8947 23 99.8947 23 99.9615 23.0668L113.476 36.4302C113.543 36.4936 113.543 36.6238 113.476 36.6906L97.189 61.9152C97.1221 61.9787 97.0552 62.0454 96.9884 62.0454H96.9248C95.6565 61.6312 94.3047 61.5394 92.9919 61.7784C91.6791 62.0174 90.4467 62.5797 89.4066 63.4142C89.3397 63.4809 89.3397 63.4809 89.2762 63.4809H89.2093C88.3531 63.087 68.3067 54.6143 68.3067 54.6143H68.3034ZM66.3904 102.323L47.6617 75.015C47.5948 74.9515 47.5948 74.8213 47.6617 74.7546L64.4774 58.0695C64.4774 58.0027 64.5442 58.0027 64.6111 58.0027H64.678C64.678 58.0695 84.5238 66.412 86.7679 67.3902C86.8314 67.4569 86.9016 67.517 86.9016 67.6505C86.6073 68.9054 86.6344 70.214 86.9804 71.4556C87.3265 72.6972 87.9803 73.8318 88.8815 74.7546C88.9417 74.8213 88.9417 74.9549 88.8782 75.015L71.2063 102.39C71.1394 102.456 71.0725 102.523 71.0057 102.523H70.9388C70.209 102.318 69.4559 102.208 68.698 102.196C68.0358 102.196 67.3134 102.323 66.6546 102.456H66.5877C66.5208 102.456 66.4573 102.39 66.387 102.323H66.3904ZM72.524 119.335L107.473 170.045C107.54 170.111 107.54 170.242 107.473 170.308L99.8244 177.933C99.8244 178 99.7575 178 99.6907 178C99.6907 178 99.6238 178 99.5569 177.933L55.909 134.718C55.8421 134.655 55.8421 134.525 55.909 134.458L55.9759 134.391L65.474 119.662C65.5375 119.599 65.6044 119.532 65.668 119.532H65.7349C66.7215 119.859 67.6479 119.989 68.6345 119.989C69.8886 119.989 71.0759 119.726 72.2631 119.208H72.33C72.3969 119.208 72.4638 119.275 72.5274 119.335H72.524ZM61.7082 116.798C61.7751 116.858 61.7751 116.925 61.7751 116.925L52.7385 130.936C52.6716 131.003 52.6047 131.069 52.5445 131.069C52.5445 131.069 52.4776 131.069 52.4107 131.003L44.431 123.117C44.3641 123.051 44.3641 122.984 44.3641 122.924C44.3641 122.857 44.431 122.79 44.4979 122.79L60.852 115.816H60.9189C60.9825 115.816 61.0493 115.883 61.1129 115.947C61.3136 116.274 61.5109 116.534 61.7082 116.798ZM77.6008 110.472C77.6008 109.951 77.4671 109.494 77.4002 108.973C77.4002 108.839 77.4002 108.776 77.5339 108.716L124.423 88.7022H124.489C124.489 88.7022 124.553 88.7022 124.62 88.769C124.948 89.0928 125.212 89.2898 125.476 89.4834C125.61 89.4834 125.61 89.6169 125.61 89.6837L121.52 114.771C121.52 114.905 121.453 114.972 121.319 114.972C119.078 115.099 117.098 116.407 115.981 118.36C115.914 118.424 115.847 118.494 115.781 118.494H115.714L77.7981 110.669C77.6644 110.669 77.5975 110.602 77.5975 110.472H77.6008ZM119.212 127.748C119.346 127.808 119.346 127.941 119.212 127.941L113.272 164.436C113.272 164.503 113.205 164.503 113.205 164.57L111.095 166.653C111.095 166.72 111.028 166.72 110.965 166.72C110.898 166.72 110.898 166.72 110.831 166.653L76.0156 116.337C75.9487 116.27 75.9487 116.137 76.0156 116.077C76.2162 115.813 76.3433 115.553 76.544 115.229C76.6075 115.162 76.6744 115.095 76.738 115.095H76.8049L115.052 122.984C115.185 123.051 115.252 123.117 115.252 123.177C115.51 124.194 116.002 125.136 116.689 125.929C117.375 126.721 118.238 127.343 119.209 127.744L119.212 127.748ZM148.027 129.834C148.094 129.834 148.161 129.894 148.161 130.091C148.161 130.158 148.161 130.225 148.094 130.285L119.476 158.641C119.476 158.708 119.409 158.708 119.342 158.708H119.209C119.142 158.641 119.078 158.574 119.078 158.444L124.028 128.071C124.028 128.005 124.091 127.875 124.155 127.875C125.324 127.412 126.349 126.647 127.125 125.658C127.188 125.658 127.259 125.594 127.326 125.594H127.389L148.027 129.834ZM122.443 82.5129C122.51 82.5763 122.576 82.6398 122.576 82.77C122.51 83.0971 122.443 83.4877 122.443 83.8783V84.4659C122.443 84.5326 122.376 84.5961 122.309 84.6595L75.6878 104.539H75.6209C75.554 104.539 75.4872 104.539 75.4236 104.479C75.3567 104.413 75.3567 104.279 75.4236 104.212L92.9015 77.1649C92.965 77.0981 93.0319 77.0347 93.0955 77.0347H93.1624C93.6239 77.1014 94.0219 77.1649 94.4165 77.1649C97.0553 77.1649 99.4933 75.8629 100.945 73.6462C101.012 73.5795 101.079 73.516 101.142 73.516H101.209L122.439 82.5129H122.443ZM173.88 104.279C173.943 104.346 173.943 104.413 173.943 104.479C173.943 104.539 173.943 104.606 173.876 104.673L152.378 125.985C152.378 126.052 152.315 126.052 152.245 126.052H152.185L128.707 121.161C128.573 121.161 128.506 121.094 128.506 120.967C128.423 120.076 128.158 119.211 127.728 118.426C127.297 117.641 126.709 116.953 126.001 116.404C125.934 116.337 125.934 116.27 125.934 116.207L130.091 90.7219C130.091 90.5951 130.225 90.525 130.289 90.525C131.174 90.4154 132.027 90.1282 132.798 89.6807C133.569 89.2332 134.241 88.6346 134.774 87.9211C134.84 87.8543 134.907 87.8543 134.974 87.8543H135.038L173.88 104.279ZM177.9 100.37C178.033 100.437 178.033 100.63 177.9 100.63L177.766 100.76C177.766 100.827 177.699 100.827 177.635 100.827H177.569L137.084 83.6813C137.018 83.6813 136.951 83.5545 136.951 83.4877C136.951 83.4243 137.018 83.3542 137.084 83.2941L153.506 76.3169H153.572C153.572 76.3169 153.639 76.3169 153.703 76.3837L177.903 100.37H177.9ZM100.878 65.1067C100.811 65.0399 100.811 64.9131 100.878 64.7796L116.771 40.1425C116.771 40.079 116.837 40.0156 116.904 40.0156C116.971 40.0156 116.971 40.0156 117.035 40.0824L131.148 54.0935C131.215 54.1602 131.215 54.2203 131.215 54.2904L127.519 77.1649C127.519 77.2984 127.453 77.3618 127.386 77.3618C126.55 77.6051 125.767 78.0026 125.078 78.5336C125.078 78.6004 125.015 78.6004 124.948 78.6004H124.881L102.329 69.0193C102.262 68.9525 102.196 68.8891 102.196 68.819C102.057 67.4948 101.606 66.2224 100.878 65.1067ZM132.332 77.8158C132.265 77.8158 132.198 77.6857 132.135 77.6222L135.235 58.657C135.235 58.5235 135.302 58.4567 135.369 58.4567H135.436C135.436 58.4567 135.496 58.4567 135.566 58.5235L149.743 72.5379C149.81 72.6047 149.81 72.6714 149.81 72.7349C149.81 72.7983 149.743 72.8617 149.676 72.9285L134.509 79.3815H134.442C134.376 79.3815 134.376 79.3815 134.309 79.3148C133.751 78.6942 133.08 78.1855 132.332 77.8158Z" fill="#C9FA4B"/>
</svg>
