<svg width="200" height="200" viewBox="0 0 200 200" fill="none" xmlns="http://www.w3.org/2000/svg">
<rect width="200" height="200" fill="white"/>
<g clip-path="url(#clip0)">
<path d="M40.5962 35.0134C32.7502 35.5261 28 40.017 28 48.0045V95.8401C28 134.693 66.5404 165.227 99.8799 164.986C137.368 164.715 172 132.975 172 95.8401V48.0045C172 39.9868 166.95 35.4655 159.043 35.0134H40.5962V35.0134ZM70.9596 73.9268L99.8799 101.477L128.83 73.9268C141.787 68.4712 147.439 83.301 142.118 87.6416L104.419 123.721C103.187 124.897 96.6032 124.897 95.3708 123.721L57.6721 87.6412C52.5912 82.8486 59.2051 67.7777 70.9596 73.9268Z" fill="#EF4056"/>
</g>
<defs>
<clipPath id="clip0">
<rect width="144" height="130" fill="white" transform="translate(28 35)"/>
</clipPath>
</defs>
</svg>
