<svg width="200" height="200" viewBox="0 0 200 200" fill="none" xmlns="http://www.w3.org/2000/svg">
<rect width="200" height="200" fill="white"/>
<g clip-path="url(#clip0)">
<path d="M47.1966 42.0129C40.2224 42.4704 36 46.4777 36 53.605V96.289C36 130.958 70.2581 158.203 99.8933 157.988C133.216 157.746 164 129.425 164 96.289V53.605C164 46.4508 159.511 42.4163 152.483 42.0129H47.1966V42.0129ZM74.1863 76.7356L99.8933 101.318L125.627 76.7356C137.144 71.8675 142.168 85.1003 137.438 88.9734L103.928 121.168C102.833 122.217 96.9806 122.217 95.8852 121.168L62.3752 88.9731C57.8589 84.6967 63.7379 71.2487 74.1863 76.7356Z" fill="#EF4056"/>
</g>
<defs>
<clipPath id="clip0">
<rect width="128" height="116" fill="white" transform="translate(36 42)"/>
</clipPath>
</defs>
</svg>
