<svg width="200" height="200" viewBox="0 0 200 200" fill="none" xmlns="http://www.w3.org/2000/svg">
<rect width="200" height="200" fill="white"/>
<g clip-path="url(#clip0)">
<path d="M145 40H55C46.7157 40 40 46.7157 40 55V145C40 153.284 46.7157 160 55 160H145C153.284 160 160 153.284 160 145V55C160 46.7157 153.284 40 145 40Z" fill="#0079BF"/>
<path d="M137.2 55.6001H115C111.023 55.6001 107.8 58.8236 107.8 62.8001V100.9C107.8 104.877 111.023 108.1 115 108.1H137.2C141.176 108.1 144.4 104.877 144.4 100.9V62.8001C144.4 58.8236 141.176 55.6001 137.2 55.6001Z" fill="white"/>
<path d="M85.0001 55.6001H62.8001C58.8236 55.6001 55.6001 58.8236 55.6001 62.8001V130.9C55.6001 134.877 58.8236 138.1 62.8001 138.1H85.0001C88.9766 138.1 92.2001 134.877 92.2001 130.9V62.8001C92.2001 58.8236 88.9766 55.6001 85.0001 55.6001Z" fill="white"/>
</g>
<defs>
<clipPath id="clip0">
<rect width="120" height="120" fill="white" transform="translate(40 40)"/>
</clipPath>
</defs>
</svg>
